<svg xmlns="http://www.w3.org/2000/svg" width="200" height="200" viewBox="0 0 200 200">
  <defs>
    <linearGradient id="bgGradient" x1="0%" y1="0%" x2="100%" y2="100%">
      <stop offset="0%" stop-color="#2D3748"/>
      <stop offset="100%" stop-color="#1A202C"/>
    </linearGradient>
  </defs>

  <!-- Background Circle -->
  <circle cx="100" cy="100" r="95" fill="url(#bgGradient)" stroke="#CBD5E0" stroke-width="3"/>

  <!-- Central Hexagon -->
  <polygon fill="#3B82F6" points="80,100 90,83 110,83 120,100 110,117 90,117"/>

  <!-- Surrounding Hexagons -->
  <polygon fill="#CBD5E0" points="80,50 90,33 110,33 120,50 110,67 90,67"/>
  <polygon fill="#CBD5E0" points="130,75 140,58 160,58 170,75 160,92 140,92"/>
  <polygon fill="#CBD5E0" points="130,125 140,108 160,108 170,125 160,142 140,142"/>
  <polygon fill="#CBD5E0" points="80,150 90,133 110,133 120,150 110,167 90,167"/>
  <polygon fill="#CBD5E0" points="30,125 40,108 60,108 70,125 60,142 40,142"/>
  <polygon fill="#CBD5E0" points="30,75 40,58 60,58 70,75 60,92 40,92"/>
</svg>
